{"glyphs":{" ":{"ha":0,"x_min":0,"x_max":0,"o":""},"A":{"ha":1247,"x_min":0,"x_max":0,"o":"m 157 -242 b 139 -224 144 -242 139 -236 l 139 -193 b 157 -175 139 -181 144 -175 l 226 -175 b 276 74 228 -69 251 21 b 329 151 289 100 306 125 b 383 207 351 178 369 196 b 440 250 396 217 415 232 b 440 446 550 326 550 369 b 383 490 415 464 396 479 b 329 544 369 500 351 518 b 276 624 306 571 289 597 b 226 871 251 676 228 765 l 157 871 b 139 889 144 871 139 876 l 139 918 b 157 936 139 931 144 936 l 1090 936 b 1108 918 1103 936 1108 931 l 1108 889 b 1090 871 1108 876 1103 871 l 1025 871 b 953 613 1024 765 1001 681 b 819 465 901 540 885 525 b 732 349 761 414 732 375 b 819 229 732 321 761 281 b 953 83 885 172 901 154 b 1025 -175 1001 15 1024 -69 l 1090 -175 b 1108 -193 1103 -175 1108 -181 l 1108 -224 b 1090 -242 1108 -236 1103 -242 m 775 181 b 664 349 701 246 664 303 b 775 515 664 394 701 450 b 894 646 835 568 847 581 b 960 871 938 706 958 781 l 293 871 b 360 615 294 758 315 672 b 479 500 404 556 419 542 b 479 196 625 396 625 300 b 360 81 419 154 404 140 b 293 -175 315 24 294 -62 l 960 -175 b 894 51 958 -85 938 -10 b 775 181 847 115 835 128 "},"B":{"ha":1701,"x_min":0,"x_max":0,"o":"m 1060 -289 l 950 -153 b 883 -69 936 -136 893 -79 l 883 -279 b 865 -297 883 -292 878 -297 l 836 -297 b 818 -279 824 -297 818 -292 l 818 -69 b 751 -153 808 -79 765 -136 l 642 -289 b 617 -292 635 -299 626 -300 l 593 -272 b 592 -247 583 -264 583 -256 l 700 -112 b 757 -42 735 -69 754 -46 l 371 -42 b 207 26 307 -42 253 -19 b 139 189 161 71 139 125 l 139 706 b 207 868 139 768 161 822 b 371 936 253 914 307 936 l 1332 936 b 1494 868 1394 936 1449 914 b 1563 706 1540 822 1563 768 l 1563 189 b 1494 26 1563 125 1540 71 b 1332 -42 1449 -19 1394 -42 l 944 -42 b 1001 -112 965 -65 983 -89 l 1111 -247 b 1108 -272 1119 -257 1118 -265 l 1085 -292 b 1060 -289 1075 -300 1067 -299 m 371 869 b 254 822 325 869 286 854 b 206 706 222 790 206 751 l 206 189 b 254 72 206 143 222 104 b 371 24 286 40 325 24 l 1332 24 b 1449 72 1378 24 1417 40 b 1496 189 1481 104 1496 143 l 1496 706 b 1332 869 1496 796 1422 869 "},"C":{"ha":1701,"x_min":0,"x_max":0,"o":"m 525 -293 b 499 -296 518 -303 508 -304 l 475 -278 b 472 -253 467 -271 465 -262 l 635 -44 l 371 -44 b 207 24 307 -44 253 -22 b 139 186 161 68 139 122 l 139 703 b 207 865 139 765 161 819 b 371 933 253 911 307 933 l 1332 933 b 1494 865 1394 933 1449 911 b 1563 703 1540 819 1563 765 l 1563 186 b 1494 24 1563 122 1540 68 b 1332 -44 1449 -22 1394 -44 l 1067 -44 l 1229 -253 b 1226 -278 1236 -262 1236 -271 l 1203 -296 b 1178 -293 1194 -304 1186 -303 l 983 -44 l 718 -44 m 371 867 b 254 819 325 867 286 851 b 206 703 222 788 206 749 l 206 186 b 254 69 206 140 222 101 b 371 21 286 38 325 21 l 1332 21 b 1449 69 1378 21 1417 38 b 1497 186 1481 101 1497 140 l 1497 703 b 1449 819 1497 749 1481 788 b 1332 867 1417 851 1378 867 m 483 258 b 408 194 444 265 408 235 b 472 131 408 160 438 131 b 538 194 510 131 538 160 b 533 215 538 203 536 210 l 703 415 b 714 414 707 415 710 414 b 746 424 725 414 736 417 l 904 335 b 968 272 904 300 933 272 b 1033 336 1003 272 1033 301 b 1028 363 1033 346 1032 356 l 1224 629 b 1294 694 1261 625 1294 656 b 1229 758 1294 729 1264 758 b 1165 694 1194 758 1165 729 b 1171 668 1165 685 1167 675 l 975 401 l 968 401 b 936 393 956 401 946 399 l 779 481 b 714 543 778 515 749 543 b 649 479 676 543 649 514 b 653 458 649 471 650 464 "},"D":{"ha":1546,"x_min":0,"x_max":0,"o":"m 743 882 b 803 882 764 894 783 894 l 1376 551 b 1376 446 1417 528 1417 469 l 1353 432 l 1353 213 b 1385 156 1374 200 1385 181 b 1319 92 1385 121 1354 92 b 1254 156 1285 92 1254 121 b 1286 213 1254 182 1265 200 l 1286 394 l 1150 317 l 1150 74 b 396 75 1150 -279 396 -275 l 396 317 l 169 446 b 169 551 129 469 129 528 m 774 824 l 210 499 l 774 175 l 1336 499 m 1085 278 l 803 117 b 743 117 783 104 764 104 l 461 278 l 461 75 b 1085 74 461 -187 1085 -189 "},"E":{"ha":1315,"x_min":0,"x_max":0,"o":"m 464 494 l 204 754 l 204 568 b 186 549 204 556 199 549 l 157 549 b 139 568 144 549 139 556 l 139 806 b 200 867 139 839 165 867 l 438 867 b 456 849 450 867 456 861 l 456 819 b 438 801 456 807 450 801 l 251 801 l 511 542 b 511 515 521 532 521 524 l 490 494 b 464 494 482 485 474 485 m 804 542 l 1064 801 l 876 801 b 858 819 864 801 858 807 l 858 849 b 876 867 858 861 864 867 l 1115 867 b 1176 806 1149 867 1176 839 l 1176 568 b 1158 549 1176 556 1171 549 l 1129 549 b 1110 568 1117 549 1110 556 l 1110 754 l 850 494 b 825 494 843 485 835 485 l 804 515 b 804 542 796 524 796 532 m 511 154 l 251 -106 l 438 -106 b 456 -124 450 -106 456 -111 l 456 -153 b 438 -171 456 -165 450 -171 l 200 -171 b 139 -110 165 -171 139 -143 l 139 129 b 157 147 139 142 144 147 l 186 147 b 204 129 199 147 204 142 l 204 -58 l 464 201 b 490 201 474 210 482 210 l 511 181 b 511 154 521 171 521 163 m 850 201 l 1110 -58 l 1110 129 b 1129 147 1110 142 1117 147 l 1158 147 b 1176 129 1171 147 1176 142 l 1176 -110 b 1115 -171 1176 -143 1149 -171 l 876 -171 b 858 -153 864 -171 858 -165 l 858 -124 b 876 -106 858 -111 864 -106 l 1064 -106 l 804 154 b 804 181 796 163 796 171 l 825 201 b 850 201 835 211 843 211 "},"F":{"ha":1286,"x_min":0,"x_max":0,"o":"m 206 846 l 465 586 l 465 772 b 483 790 465 785 471 790 l 514 790 b 532 772 526 790 532 785 l 532 533 b 471 472 532 500 504 472 l 232 472 b 214 490 219 472 214 478 l 214 521 b 232 539 214 533 219 539 l 418 539 l 158 799 b 158 824 150 807 150 815 l 181 846 b 206 846 188 856 196 856 m 1151 800 l 892 539 l 1079 539 b 1097 521 1092 539 1097 533 l 1097 492 b 1079 474 1097 479 1092 474 l 840 474 b 779 535 807 474 779 501 l 779 774 b 797 792 779 786 785 792 l 826 792 b 844 774 839 792 844 786 l 844 586 l 1104 846 b 1131 846 1114 854 1122 854 l 1151 825 b 1151 800 1161 815 1161 807 m 1106 -147 l 846 113 l 846 -74 b 828 -92 846 -86 840 -92 l 797 -92 b 779 -74 785 -92 779 -86 l 779 165 b 840 226 779 199 807 226 l 1079 226 b 1097 208 1092 226 1097 221 l 1097 178 b 1079 160 1097 165 1092 160 l 893 160 l 1153 -100 b 1153 -125 1161 -108 1161 -117 l 1131 -147 b 1106 -147 1124 -154 1115 -154 m 160 -100 l 419 160 l 232 160 b 214 178 219 160 214 165 l 214 207 b 232 225 214 219 219 225 l 471 225 b 532 164 504 225 532 197 l 532 -75 b 514 -93 532 -87 526 -93 l 485 -93 b 467 -75 472 -93 467 -87 l 467 113 l 207 -147 b 181 -147 197 -157 189 -157 l 160 -126 b 160 -100 150 -118 150 -110 "},"G":{"ha":1363,"x_min":0,"x_max":0,"o":"m 511 989 b 681 863 588 989 649 936 b 851 989 713 939 778 989 b 978 683 1013 989 1089 794 l 967 672 l 1046 672 b 1172 621 1094 672 1138 656 b 1224 494 1207 586 1224 543 l 1224 368 l 1136 368 l 1136 -61 b 1085 -187 1136 -110 1119 -153 b 960 -239 1050 -222 1008 -239 l 403 -239 b 278 -187 354 -239 313 -222 b 225 -61 243 -153 225 -110 l 225 368 l 139 368 l 139 494 b 192 621 139 543 157 586 b 317 672 226 656 268 672 l 396 672 l 383 683 b 511 989 271 796 351 989 m 511 924 b 431 729 410 924 361 800 b 649 674 467 694 539 675 b 592 890 649 775 640 840 b 511 924 569 913 543 924 m 851 924 b 771 890 819 924 793 913 b 717 756 738 856 721 797 b 714 674 715 735 714 707 b 932 729 824 675 896 694 b 956 853 967 764 975 806 b 851 924 936 900 901 924 m 649 607 l 317 607 b 206 494 256 607 206 556 l 206 435 l 649 435 m 714 435 l 1157 435 l 1157 494 b 1046 607 1157 556 1107 607 l 714 607 m 649 -172 l 649 368 l 292 368 l 292 -61 b 403 -172 292 -122 342 -172 m 714 368 l 714 -172 l 960 -172 b 1071 -61 1021 -172 1071 -122 l 1071 368 "},"H":{"ha":1431,"x_min":0,"x_max":0,"o":"m 515 731 b 565 790 515 758 536 783 l 1218 926 b 1292 867 1256 933 1292 906 l 1292 88 b 1222 -40 1292 36 1268 -6 b 1071 -86 1179 -71 1129 -86 b 918 -40 1011 -86 961 -71 b 850 83 872 -7 850 35 b 918 207 850 132 872 174 b 1072 254 961 239 1013 254 b 1225 206 1132 253 1182 238 l 1225 860 l 582 726 l 582 -60 b 513 -187 582 -112 558 -156 b 361 -235 469 -219 419 -235 b 208 -187 301 -235 251 -219 b 139 -64 163 -154 139 -112 b 208 60 139 -15 163 26 b 363 107 251 92 303 107 b 515 57 422 106 472 89 m 1183 154 b 1071 188 1153 176 1115 188 b 956 154 1025 188 988 176 b 956 14 901 114 901 54 b 1071 -21 988 -10 1025 -21 b 1183 14 1115 -21 1153 -10 b 1183 154 1239 54 1239 114 m 475 6 b 361 40 443 29 406 40 b 247 6 315 40 278 29 b 247 -135 192 -35 192 -94 b 361 -168 278 -157 315 -168 b 475 -135 406 -168 443 -157 b 475 6 529 -94 529 -35 "},"I":{"ha":1122,"x_min":0,"x_max":0,"o":"m 582 844 l 582 -54 b 513 -179 582 -104 558 -146 b 361 -226 469 -211 419 -226 b 208 -179 301 -226 251 -211 b 139 -56 163 -146 139 -104 b 208 68 139 -7 163 35 b 361 114 251 99 301 114 b 513 68 419 114 469 99 l 515 65 l 515 854 b 554 911 515 883 528 901 b 624 892 579 919 603 913 l 976 531 b 976 504 985 521 985 513 l 956 483 b 931 483 946 474 938 474 m 474 14 b 361 49 443 38 406 49 b 247 14 315 49 278 38 b 247 -126 192 -26 192 -86 b 361 -160 278 -149 315 -160 b 474 -126 406 -160 443 -149 b 474 14 529 -86 529 -26 "},"J":{"ha":1428,"x_min":0,"x_max":0,"o":"m 886 847 l 886 -51 b 818 -176 886 -103 864 -144 b 667 -224 775 -208 725 -224 b 513 -176 607 -224 556 -208 b 444 -53 467 -143 444 -101 b 513 71 444 -4 467 38 b 667 117 556 101 607 117 b 818 71 725 117 775 101 l 821 68 l 821 857 b 860 914 821 886 833 904 b 929 894 885 922 908 915 l 1282 533 b 1282 507 1290 524 1290 515 l 1261 486 b 1235 486 1251 476 1243 476 m 578 722 b 596 740 590 722 596 728 l 596 769 b 578 788 596 782 590 788 l 157 788 b 139 769 144 788 139 782 l 139 740 b 157 722 139 728 144 722 m 578 504 b 596 522 590 504 596 510 l 596 551 b 578 569 596 564 590 569 l 157 569 b 139 551 144 569 139 564 l 139 522 b 157 504 139 510 144 504 m 578 286 b 596 304 590 286 596 292 l 596 335 b 578 353 596 347 590 353 l 157 353 b 139 335 144 353 139 347 l 139 304 b 157 286 139 292 144 286 m 779 17 b 551 17 717 63 614 63 b 551 -124 497 -24 497 -83 b 779 -124 614 -168 717 -168 b 779 17 835 -83 835 -24 "},"K":{"ha":1411,"x_min":0,"x_max":0,"o":"m 322 476 b 346 578 290 508 303 563 b 643 558 442 610 540 604 l 836 750 b 846 879 829 793 832 836 b 947 903 861 922 915 936 l 1267 585 b 1242 483 1299 553 1285 499 b 1113 472 1201 471 1158 467 l 921 281 b 940 -18 967 178 972 78 b 839 -42 925 -61 871 -74 l 604 193 l 204 -208 b 179 -208 196 -217 188 -217 l 158 -187 b 158 -161 150 -179 150 -171 l 558 240 m 907 850 b 975 611 883 768 913 676 b 1214 543 1040 549 1131 521 m 1040 493 b 931 567 1000 508 964 533 b 856 676 899 599 874 635 l 704 525 b 807 444 740 504 775 476 b 889 342 840 410 868 375 m 875 215 b 374 517 808 417 572 582 l 881 11 b 875 215 901 78 899 146 "},"L":{"ha":1656,"x_min":0,"x_max":0,"o":"m 1310 893 b 1456 833 1367 893 1415 874 b 1517 686 1496 793 1517 743 l 1517 7 b 1456 -139 1517 -50 1496 -99 b 1310 -200 1415 -179 1367 -200 l 346 -200 b 200 -139 289 -200 240 -179 b 139 7 160 -99 139 -50 l 139 686 b 200 833 139 743 160 793 b 346 893 240 874 289 893 m 346 828 b 206 686 268 828 206 764 l 206 239 l 506 543 b 590 544 529 567 567 567 l 939 206 l 1114 383 b 1197 385 1136 407 1174 407 l 1451 153 l 1451 686 b 1310 828 1451 764 1388 828 m 1065 710 b 1006 565 1121 661 1078 561 b 921 650 957 565 921 601 b 1065 710 917 722 1017 765 m 206 146 l 206 7 b 346 -133 206 -71 268 -133 l 1310 -133 b 1451 7 1388 -133 1451 -71 l 1451 64 l 1157 333 l 981 156 b 897 154 958 132 921 132 l 549 493 "},"M":{"ha":1533,"x_min":0,"x_max":0,"o":"m 568 813 l 944 951 b 986 951 958 957 972 957 l 1361 814 b 1394 765 1383 804 1394 789 l 1394 -203 b 1325 -251 1394 -237 1360 -264 l 965 -118 l 589 -257 b 547 -257 575 -262 561 -262 l 172 -119 b 139 -69 150 -110 139 -93 l 139 897 b 208 946 139 932 175 958 m 535 -182 l 535 756 l 204 876 l 204 -60 m 932 -60 l 932 876 l 601 756 l 601 -182 m 999 876 l 999 -60 l 1329 -182 l 1329 756 "},"N":{"ha":1490,"x_min":0,"x_max":0,"o":"m 719 974 b 772 974 736 982 754 982 l 1317 713 b 1351 657 1340 701 1351 683 b 1317 601 1351 631 1340 613 l 772 342 b 719 342 754 333 736 333 l 174 601 b 139 657 150 613 139 631 b 174 713 139 683 150 701 m 746 913 l 211 657 l 746 401 l 1279 657 m 1317 419 b 1351 365 1340 408 1351 390 b 1317 310 1351 339 1340 321 l 772 49 b 719 49 754 40 736 40 l 174 310 b 139 365 150 321 139 339 b 174 419 139 390 150 408 l 290 476 b 314 469 301 483 310 481 l 328 443 b 321 418 333 433 331 425 l 211 365 l 746 110 l 1279 365 l 1169 418 b 1163 443 1160 425 1157 433 l 1176 469 b 1200 476 1181 481 1189 483 m 1317 128 b 1351 74 1340 117 1351 99 b 1317 18 1351 47 1340 29 l 772 -243 b 719 -243 754 -251 736 -251 l 174 18 b 139 74 150 29 139 47 b 174 128 139 99 150 117 l 290 185 b 314 176 300 190 308 188 l 328 150 b 321 126 335 140 332 132 b 211 72 306 118 268 100 l 746 -183 l 1279 72 b 1169 126 1231 96 1193 114 b 1163 150 1158 132 1156 140 l 1176 176 b 1200 185 1182 189 1190 192 "},"O":{"ha":1478,"x_min":0,"x_max":0,"o":"m 740 947 b 1164 772 906 947 1047 889 b 1339 347 1281 656 1339 514 b 1164 -78 1339 181 1281 39 b 739 -251 1046 -193 904 -251 b 314 -78 571 -251 429 -193 b 139 347 197 39 139 181 b 314 772 139 514 197 656 b 740 947 431 889 572 947 m 485 532 b 706 507 558 518 632 510 l 706 878 b 485 532 594 856 517 721 m 772 507 b 992 532 846 510 919 518 b 772 878 960 719 883 856 m 267 597 b 421 547 318 578 369 561 b 540 843 443 672 483 771 b 267 597 418 796 326 714 m 1057 547 b 1211 597 1108 561 1160 578 b 938 843 1151 714 1060 796 b 1057 547 994 771 1035 672 m 239 158 b 411 213 296 181 354 199 b 411 482 401 303 401 392 b 239 538 358 494 301 514 b 239 158 192 411 192 285 m 1067 213 b 1239 158 1122 199 1179 181 b 1238 538 1285 285 1285 411 b 1067 482 1175 513 1118 494 b 1067 213 1076 392 1076 303 m 476 228 b 706 254 550 243 626 251 l 706 440 b 476 467 626 443 550 451 b 476 228 468 388 468 307 m 772 254 b 1001 228 851 251 928 243 b 1001 467 1010 307 1010 388 b 772 440 928 451 851 443 m 706 188 b 485 163 632 186 558 178 b 706 -183 517 -25 593 -161 m 993 163 b 772 188 911 178 838 186 l 772 -183 b 993 163 883 -161 961 -26 m 421 147 b 267 97 365 132 314 115 b 539 -149 326 -18 418 -100 b 421 147 482 -78 443 21 m 1211 97 b 1057 147 1160 117 1108 133 b 938 -149 1035 21 994 -78 b 1211 97 1060 -100 1151 -18 "},"P":{"ha":1485,"x_min":0,"x_max":0,"o":"m 1117 961 b 1279 894 1179 961 1233 939 b 1346 732 1324 849 1346 794 l 1346 -37 b 1279 -200 1346 -100 1324 -154 b 1117 -268 1233 -246 1179 -268 l 369 -268 b 207 -200 307 -268 253 -246 b 139 -37 161 -154 139 -100 l 139 732 b 207 894 139 794 161 849 b 369 961 253 939 307 961 m 369 894 b 254 847 324 894 286 879 b 206 732 222 815 206 776 l 206 -37 b 369 -201 206 -128 279 -201 l 1117 -201 b 1281 -37 1207 -201 1281 -128 l 1281 732 b 1233 847 1281 776 1265 815 b 1117 894 1201 879 1163 894 m 388 775 b 317 703 349 775 317 743 b 388 631 317 663 349 631 b 460 703 428 631 460 663 b 388 775 460 743 428 775 m 1024 754 b 1024 651 996 726 996 679 b 1126 651 1051 624 1099 624 b 1126 754 1154 679 1154 726 b 1024 754 1099 782 1051 782 m 388 536 b 317 464 349 536 317 503 b 388 392 317 424 349 392 b 460 464 428 392 460 424 b 388 536 460 503 428 536 m 1024 515 b 1003 464 1010 500 1003 483 b 1075 392 1003 424 1035 392 b 1147 464 1115 392 1147 424 b 1024 515 1147 525 1069 561 m 388 303 b 317 231 349 303 317 271 b 388 158 317 192 349 158 b 460 231 428 158 460 192 b 388 303 460 271 428 303 m 1024 282 b 1003 231 1010 268 1003 251 b 1075 158 1003 192 1035 158 b 1147 231 1115 158 1147 192 b 1024 282 1147 294 1068 326 m 388 68 b 317 -4 349 68 317 36 b 388 -76 317 -44 349 -76 b 460 -4 428 -76 460 -44 b 388 68 460 36 428 68 m 1024 47 b 1024 -56 996 19 996 -28 b 1126 -56 1051 -83 1099 -83 b 1126 47 1154 -28 1154 19 b 1024 47 1099 75 1051 75 "},"Q":{"ha":1351,"x_min":0,"x_max":0,"o":"m 1146 7 b 910 578 1146 222 1061 426 b 339 814 758 729 554 814 b 321 832 326 814 321 819 l 321 863 b 339 881 321 875 326 881 b 1213 7 814 888 1219 482 b 1194 -11 1213 -6 1207 -11 l 1164 -11 b 1146 7 1151 -11 1146 -6 m 321 533 b 339 551 321 546 326 551 b 724 392 489 551 617 499 b 883 7 831 285 883 157 b 865 -11 883 -6 878 -11 l 835 -11 b 817 7 822 -11 817 -6 b 676 344 817 140 769 253 b 339 485 585 438 472 485 b 321 503 326 485 321 490 m 339 206 b 197 147 283 206 236 186 b 139 7 158 108 139 61 b 197 -135 139 -49 158 -96 b 339 -193 236 -174 283 -193 b 479 -135 393 -193 440 -174 b 538 7 518 -96 538 -49 b 479 147 538 61 518 108 b 339 206 440 186 393 206 m 240 -92 b 240 106 185 -37 185 51 b 438 106 294 160 383 160 b 438 -92 492 51 492 -37 b 240 -92 383 -147 294 -147 "},"R":{"ha":1761,"x_min":0,"x_max":0,"o":"m 1581 511 b 893 789 1392 694 1147 789 b 206 511 642 789 393 694 b 181 511 197 503 189 503 l 158 533 b 158 558 150 542 150 550 b 1628 558 557 953 1229 953 b 1628 533 1638 549 1638 540 l 1606 511 b 1581 511 1599 501 1590 501 m 1354 260 b 1328 260 1344 251 1336 251 b 893 432 1207 375 1061 432 b 458 260 725 432 579 375 b 432 260 450 251 442 251 l 411 281 b 411 307 403 290 403 299 b 893 499 547 435 708 499 b 1375 307 1081 499 1240 435 b 1375 281 1383 299 1383 290 m 1118 21 b 1117 61 1132 35 1132 49 b 893 154 1050 124 975 154 b 669 61 811 154 736 124 b 668 21 654 49 654 35 l 853 -162 b 935 -162 875 -185 911 -185 m 893 -119 l 733 40 b 1053 40 829 114 957 114 "},"S":{"ha":1053,"x_min":0,"x_max":0,"o":"m 917 149 b 713 -201 911 -18 825 -146 b 529 -243 656 -228 594 -242 b 142 149 339 -250 150 -107 b 200 407 140 218 160 304 b 332 682 240 510 283 601 b 479 910 379 763 428 839 b 579 910 503 944 556 944 b 860 407 681 767 779 613 b 917 149 900 304 918 218 m 850 150 b 751 497 853 242 819 357 b 529 871 682 636 608 761 b 308 497 450 761 376 636 b 208 150 239 357 206 242 b 529 -178 214 -64 371 -185 b 850 150 688 -185 844 -64 "},"T":{"ha":1489,"x_min":0,"x_max":0,"o":"m 456 -240 b 222 -124 356 -231 278 -192 b 139 111 167 -56 139 22 l 139 399 b 329 850 139 592 215 754 b 744 1000 443 946 593 1000 b 1161 850 896 1000 1047 946 b 1350 399 1275 754 1350 592 l 1350 111 b 1267 -124 1350 22 1322 -56 b 1033 -240 1211 -192 1133 -231 b 967 -179 996 -244 967 -214 l 967 401 b 1033 463 967 439 999 467 b 1285 324 1142 453 1225 406 l 1285 399 b 1115 801 1285 571 1217 715 b 743 935 1014 888 878 935 b 371 801 608 935 472 888 b 201 399 269 715 201 571 l 201 319 b 456 463 260 404 344 453 b 522 401 490 467 522 436 l 522 -179 b 456 -240 522 -214 490 -244 m 456 396 b 215 190 328 381 236 294 b 215 33 204 138 204 85 b 456 -174 236 -72 328 -158 m 1033 -174 b 1033 396 1368 -139 1368 361 "},"U":{"ha":1432,"x_min":0,"x_max":0,"o":"m 726 -237 b 867 -378 804 -237 867 -300 b 850 -446 867 -403 861 -425 b 1118 -318 957 -425 1046 -382 b 1226 -72 1190 -254 1226 -172 b 994 -197 1172 -147 1096 -189 b 928 -136 957 -201 928 -171 l 928 410 b 994 471 928 444 957 475 b 1226 346 1096 463 1172 421 l 1226 408 b 204 408 1226 1081 204 1081 l 204 346 b 438 471 260 421 338 463 b 503 410 472 475 503 444 l 503 -136 b 438 -197 503 -171 472 -201 b 221 -93 347 -190 275 -156 b 139 139 167 -29 139 49 l 139 408 b 319 836 139 592 211 746 b 717 979 428 926 572 979 b 1114 836 860 979 1006 926 b 1293 408 1222 746 1293 592 l 1293 -72 b 1110 -410 1293 -217 1219 -337 b 726 -518 999 -481 864 -518 b 588 -378 650 -518 588 -456 b 726 -237 588 -300 650 -237 m 204 142 b 438 -132 204 -4 293 -117 l 438 404 b 268 318 365 397 308 368 b 204 142 228 267 206 208 m 994 -132 b 994 404 1304 -99 1303 371 m 669 -321 b 669 -435 638 -353 638 -403 b 783 -435 701 -467 751 -467 b 783 -321 815 -403 815 -353 b 669 -321 751 -289 701 -289 "},"V":{"ha":1482,"x_min":0,"x_max":0,"o":"m 669 835 l 669 954 b 689 972 669 967 676 972 l 718 972 b 736 954 731 972 736 967 l 736 835 l 1054 835 b 1094 818 1069 835 1083 829 l 1324 603 b 1324 518 1347 581 1347 542 l 1094 311 b 1054 294 1081 300 1067 294 l 736 294 l 736 -249 b 718 -267 736 -261 731 -267 l 689 -267 b 669 -249 676 -267 669 -261 l 669 294 l 351 294 b 201 357 293 294 243 315 b 139 507 160 399 139 449 l 139 622 b 201 772 139 681 160 731 b 351 835 243 814 293 835 m 1051 768 l 351 768 b 206 622 272 768 206 704 l 206 507 b 351 361 206 428 272 361 l 1051 361 l 1272 561 "},"W":{"ha":1611,"x_min":0,"x_max":0,"o":"m 840 900 l 840 983 b 858 1001 840 996 846 1001 l 889 1001 b 907 983 901 1001 907 996 l 907 900 l 1285 900 b 1319 886 1299 900 1310 896 l 1457 749 b 1457 681 1478 731 1478 699 l 1319 544 b 1285 529 1310 535 1297 529 l 483 529 b 343 669 407 529 343 593 l 343 760 b 483 900 343 838 407 900 m 1278 835 l 483 835 b 410 760 443 835 410 800 l 410 669 b 483 596 410 629 443 596 l 1278 596 l 1397 715 m 331 72 b 296 86 317 72 306 76 l 154 228 b 154 297 133 246 133 279 l 296 439 b 331 453 306 449 317 453 l 1161 453 b 1304 310 1240 453 1304 389 l 1304 215 b 1161 72 1304 136 1240 72 l 907 72 l 907 -242 b 889 -260 907 -254 901 -260 l 858 -260 b 840 -242 846 -260 840 -254 l 840 72 m 1161 138 b 1239 215 1204 138 1239 172 l 1239 310 b 1161 388 1239 353 1204 388 l 338 388 l 213 263 l 338 138 "},"X":{"ha":1679,"x_min":0,"x_max":0,"o":"m 981 -189 b 935 -211 968 -204 953 -211 l 797 -211 b 751 -189 779 -211 764 -204 l 178 521 b 175 593 160 544 158 568 l 349 854 b 400 882 360 872 376 882 l 1331 882 b 1382 854 1354 882 1371 872 l 1556 593 b 1551 521 1571 568 1569 544 m 450 817 l 608 610 l 792 817 m 939 817 l 1122 610 l 1279 817 m 1051 590 l 865 800 l 679 590 m 539 590 l 386 792 l 253 590 m 1344 792 l 1190 590 l 1478 590 m 582 524 l 260 524 l 800 -144 m 1079 524 l 651 524 l 864 -128 b 867 -129 865 -129 865 -129 m 932 -144 l 1469 524 l 1149 524 l 931 -144 "},"Y":{"ha":1464,"x_min":0,"x_max":0,"o":"m 1151 768 b 1325 349 1267 653 1325 513 b 1151 -69 1325 186 1267 46 b 732 -243 1036 -185 896 -243 b 313 -69 568 -243 428 -185 b 139 349 197 46 139 186 b 313 768 139 513 197 653 b 732 942 428 883 568 942 b 1151 768 896 942 1036 883 m 360 722 b 206 349 257 618 206 494 b 360 -24 206 203 257 79 b 732 -178 463 -126 586 -178 b 1104 -24 878 -178 1001 -126 b 1258 349 1207 79 1258 203 b 1104 722 1258 494 1207 619 b 732 876 1001 825 878 876 b 360 722 586 876 463 825 m 418 119 b 431 47 406 93 410 68 b 501 35 451 26 475 22 l 849 204 b 878 233 861 210 871 219 l 1046 579 b 1035 651 1058 606 1056 631 b 963 664 1014 672 989 676 l 615 494 b 586 465 603 489 593 479 m 646 436 l 983 600 l 819 263 l 482 99 m 693 389 b 693 310 671 367 671 331 b 772 310 714 288 750 288 b 772 389 793 331 793 367 b 693 389 750 411 714 411 "},"Z":{"ha":1436,"x_min":0,"x_max":0,"o":"m 1028 925 b 1218 846 1101 925 1165 899 b 1297 656 1271 793 1297 729 l 1297 36 b 1218 -154 1297 -37 1271 -101 b 1028 -233 1165 -207 1101 -233 l 408 -233 b 218 -154 335 -233 271 -207 b 139 36 165 -101 139 -37 l 139 656 b 218 846 139 729 165 793 b 408 925 271 899 335 925 m 408 858 b 265 799 353 858 306 839 b 206 656 225 758 206 711 l 206 36 b 265 -107 206 -19 225 -67 b 408 -167 306 -147 353 -167 l 1028 -167 b 1172 -107 1085 -167 1132 -147 b 1232 36 1213 -67 1232 -19 l 1232 656 b 1172 799 1232 711 1213 758 b 1028 858 1132 839 1085 858 m 467 442 b 486 424 467 429 474 424 l 515 424 b 533 442 528 424 533 429 l 533 538 l 629 538 b 647 556 642 538 647 543 l 647 586 b 629 604 647 599 642 604 l 533 604 l 533 699 b 515 717 533 711 528 717 l 486 717 b 467 699 474 717 467 711 l 467 604 l 372 604 b 354 586 360 604 354 599 l 354 556 b 372 538 354 543 360 538 l 467 538 m 1065 538 b 1083 556 1078 538 1083 543 l 1083 586 b 1065 604 1083 599 1078 604 l 838 604 b 819 586 825 604 819 599 l 819 556 b 838 538 819 543 825 538 m 624 200 b 624 226 631 210 631 218 l 601 247 b 576 247 593 256 585 256 l 500 171 l 425 247 b 399 247 415 257 407 257 l 378 226 b 378 200 368 218 368 210 l 454 125 l 378 49 b 378 24 368 39 368 31 l 399 1 b 425 1 407 -7 415 -7 l 500 78 l 576 1 b 601 1 585 -7 593 -7 l 624 24 b 624 49 631 31 631 39 l 547 125 m 1065 164 b 1083 182 1078 164 1083 169 l 1083 213 b 1065 231 1083 225 1078 231 l 838 231 b 819 213 825 231 819 225 l 819 182 b 838 164 819 169 825 164 m 1065 26 b 1083 44 1078 26 1083 32 l 1083 74 b 1065 92 1083 86 1078 92 l 838 92 b 819 74 825 92 819 86 l 819 44 b 838 26 819 32 825 26 "},"a":{"ha":1600,"x_min":0,"x_max":0,"o":"m 1236 832 b 1396 767 1299 832 1351 810 b 1461 607 1439 722 1461 669 l 1461 78 b 1396 -82 1461 15 1439 -37 b 1236 -147 1351 -125 1299 -147 l 364 -147 b 206 -82 301 -147 249 -125 b 139 78 161 -37 139 15 l 139 607 b 206 767 139 669 161 722 b 364 832 249 810 301 832 m 364 765 b 286 744 335 765 308 758 l 701 325 b 899 325 756 271 844 271 l 1315 744 b 1236 765 1292 758 1265 765 m 589 346 l 236 700 b 206 607 215 672 206 642 l 206 78 b 233 -12 206 44 215 14 m 1011 344 l 1367 -12 b 1396 78 1386 14 1396 44 l 1396 607 b 1364 700 1396 640 1385 671 m 635 299 l 281 -58 b 364 -81 307 -74 335 -81 l 1236 -81 b 1318 -58 1265 -81 1293 -74 l 965 297 l 946 279 b 800 219 906 239 857 219 b 654 279 743 219 694 239 "},"b":{"ha":1508,"x_min":0,"x_max":0,"o":"m 1369 -96 b 1308 -244 1369 -153 1349 -203 b 1158 -306 1267 -285 1217 -306 l 350 -306 b 201 -244 292 -306 242 -285 b 139 -96 160 -203 139 -153 l 139 394 b 211 554 139 453 163 506 l 617 963 b 754 1021 654 1000 700 1019 b 890 964 807 1021 853 1001 l 1294 556 b 1369 394 1344 506 1369 451 m 276 526 l 601 200 l 615 214 b 753 269 653 251 699 269 b 890 214 807 269 853 251 l 906 199 l 1232 526 l 843 918 b 664 917 794 967 713 965 m 232 478 b 217 453 225 469 221 461 b 206 394 210 435 206 415 l 206 -96 b 229 -175 206 -125 214 -151 l 554 153 m 1279 -175 b 1303 -96 1294 -151 1303 -125 l 1303 394 b 1276 478 1303 426 1294 454 l 953 151 m 276 -221 b 350 -240 300 -233 324 -240 l 1158 -240 b 1231 -221 1185 -240 1210 -233 l 843 168 b 754 203 819 192 790 203 b 663 168 717 203 686 192 "},"c":{"ha":1508,"x_min":0,"x_max":0,"o":"m 1114 739 l 1296 554 b 1369 394 1344 506 1369 451 l 1369 -96 b 1307 -244 1369 -151 1349 -201 b 1158 -306 1264 -285 1215 -306 l 349 -306 b 200 -244 292 -306 243 -285 b 139 -96 160 -201 139 -153 l 139 394 b 207 551 139 451 161 504 l 393 738 l 393 785 b 451 847 393 818 418 847 l 503 847 l 615 963 b 890 964 700 1047 806 1049 l 1007 847 l 1054 847 b 1114 785 1088 847 1114 818 m 594 847 l 914 847 l 844 917 b 664 918 783 978 724 978 m 458 343 l 600 200 l 615 214 b 753 269 653 251 699 269 b 890 214 807 269 853 251 l 906 199 l 1047 342 l 1047 781 l 458 781 m 1114 408 l 1231 526 l 1114 646 m 393 643 l 276 526 l 393 410 m 232 478 b 204 394 214 454 204 426 l 204 -96 b 228 -175 204 -122 213 -149 l 554 153 m 951 151 l 1278 -175 b 1303 -96 1294 -151 1303 -125 l 1303 394 b 1275 478 1303 426 1293 454 m 276 -221 b 349 -240 297 -233 322 -240 l 1158 -240 b 1231 -221 1183 -240 1207 -233 l 843 168 b 753 203 819 192 789 203 b 663 168 715 203 686 192 "},"d":{"ha":1335,"x_min":0,"x_max":0,"o":"m 665 -264 b 242 131 465 -204 315 -54 b 161 721 168 314 140 517 b 218 776 165 753 189 776 b 444 835 292 778 368 797 b 638 972 521 871 585 917 b 726 972 664 999 700 1000 b 919 835 778 917 842 871 b 1146 776 996 797 1072 778 b 1204 721 1175 776 1200 753 b 1124 131 1225 517 1197 314 b 699 -264 1050 -54 899 -204 b 665 -264 688 -268 676 -268 m 682 -200 b 1067 168 865 -144 1000 -6 b 1139 711 1133 340 1156 524 b 893 774 1057 714 975 735 b 682 924 811 813 740 863 b 472 775 625 864 554 814 b 225 711 389 735 307 714 b 297 168 208 524 231 340 b 682 -200 364 -6 499 -144 m 919 540 b 911 564 925 551 922 560 l 885 578 b 860 569 874 582 865 579 l 675 215 l 558 399 b 533 404 551 408 543 410 l 508 389 b 503 364 497 382 496 374 l 626 169 b 728 175 656 125 704 129 l 919 540 "},"e":{"ha":1335,"x_min":0,"x_max":0,"o":"m 664 -264 b 240 131 464 -204 314 -54 b 158 721 167 314 140 517 b 217 776 163 753 188 776 b 443 835 290 778 367 797 b 636 972 519 871 585 917 b 725 972 663 999 699 1000 b 918 835 776 917 842 871 b 1144 776 994 797 1069 778 b 1203 721 1174 776 1199 753 b 1121 131 1224 517 1194 314 b 697 -264 1047 -54 897 -204 b 664 -264 686 -268 675 -268 m 681 -200 b 1065 168 864 -144 999 -6 b 1138 711 1132 340 1154 524 b 892 774 1056 714 974 735 b 681 924 810 813 739 863 b 471 775 624 864 553 814 b 224 711 388 735 306 714 b 296 168 207 524 229 340 b 681 -200 363 -6 497 -144 m 814 182 b 840 182 824 174 832 174 l 861 204 b 861 229 871 211 871 219 l 728 363 l 861 497 b 861 522 871 504 871 513 l 840 543 b 814 543 832 551 824 551 l 681 410 l 547 543 b 521 543 538 551 529 551 l 500 522 b 500 497 490 513 490 504 l 633 363 l 500 229 b 500 204 490 219 490 211 l 521 182 b 547 182 529 174 538 174 l 681 317 "},"f":{"ha":1678,"x_min":0,"x_max":0,"o":"m 744 150 b 935 150 807 174 871 174 b 1042 318 950 218 986 274 b 1232 385 1097 363 1161 385 b 1396 338 1290 385 1344 369 l 1265 704 b 1218 794 1251 746 1232 774 b 1176 822 1210 806 1185 817 b 1124 840 1168 828 1133 838 b 1056 854 1114 843 1068 850 b 1042 875 1043 857 1039 864 l 1049 904 b 1071 918 1051 917 1058 921 b 1147 901 1108 910 1133 904 b 1203 882 1160 897 1179 892 b 1256 851 1226 872 1244 863 b 1328 726 1278 828 1307 786 l 1514 199 b 1539 78 1531 161 1539 121 b 1449 -140 1539 -7 1508 -81 b 1232 -229 1389 -200 1317 -229 b 1014 -137 1147 -229 1074 -199 b 925 82 954 -76 924 -3 b 753 82 868 111 811 111 b 664 -137 754 -3 724 -76 b 446 -229 604 -199 531 -229 b 229 -140 361 -229 289 -200 b 139 78 169 -81 139 -7 b 164 199 139 121 147 161 l 350 726 b 447 868 371 800 414 844 b 544 904 465 883 521 899 b 608 918 556 907 576 911 b 629 904 619 921 626 917 l 636 875 b 622 854 639 864 635 857 b 556 840 610 850 565 843 b 529 833 550 839 542 836 b 482 811 504 826 500 821 b 413 704 453 794 431 758 l 283 338 b 446 385 335 369 389 385 b 636 319 517 385 581 363 b 744 150 692 275 728 218 m 617 249 b 446 318 569 294 513 318 b 276 249 379 318 322 294 b 206 78 229 201 206 144 b 276 -93 206 11 229 -46 b 446 -162 322 -139 379 -162 b 617 -93 513 -162 569 -139 b 686 78 663 -46 686 11 b 617 249 686 144 663 201 m 1232 318 b 1063 249 1167 318 1110 294 b 992 78 1015 201 992 144 b 1063 -93 992 11 1015 -46 b 1232 -162 1110 -139 1167 -162 b 1403 -93 1299 -162 1356 -139 b 1474 78 1450 -46 1474 11 b 1403 249 1474 144 1450 201 b 1232 318 1356 294 1299 318 "},"g":{"ha":1500,"x_min":0,"x_max":0,"o":"m 654 842 b 968 908 744 932 850 954 b 1311 733 1118 851 1232 793 b 1428 536 1399 665 1438 600 b 1167 386 1413 428 1288 406 b 949 303 1086 374 994 347 l 835 188 b 729 -147 761 117 753 -40 b 603 -290 711 -224 671 -281 b 406 -172 538 -300 472 -260 b 229 168 349 -100 289 14 b 296 483 183 289 206 393 m 343 436 b 292 192 272 367 256 285 b 457 -132 344 51 400 -57 b 593 -225 508 -200 554 -231 b 683 -42 644 -218 672 -133 b 717 110 688 6 699 56 b 788 235 735 164 758 206 l 903 349 b 1029 421 932 379 975 403 b 1179 456 1083 439 1133 450 b 1363 544 1271 467 1356 493 b 1269 681 1368 585 1338 629 b 944 847 1200 735 1092 790 b 701 796 853 882 772 864 m 794 713 b 794 611 861 713 861 611 b 794 713 729 608 729 717 m 968 699 b 897 626 1018 656 939 576 b 968 699 849 671 924 746 m 794 574 b 794 472 861 574 861 472 b 794 574 729 469 729 578 m 968 560 b 897 488 1018 517 939 438 b 968 560 849 532 924 607 m 578 289 l 635 232 b 635 206 644 224 644 215 l 614 185 b 589 185 606 176 597 176 l 531 242 l 474 185 b 447 185 464 176 456 176 l 426 206 b 426 231 417 215 417 224 l 485 289 l 426 347 b 426 372 418 356 418 364 l 447 393 b 474 393 456 401 464 401 l 531 336 l 589 393 b 614 393 597 401 606 401 l 635 372 b 635 347 644 363 644 354 "},"h":{"ha":1394,"x_min":0,"x_max":0,"o":"m 776 -147 b 614 -214 732 -192 678 -214 b 451 -147 550 -214 496 -192 l 206 99 b 139 263 161 144 139 199 b 206 424 139 325 161 379 l 667 885 b 710 903 678 897 692 903 l 1194 904 b 1256 843 1229 904 1256 876 l 1256 358 b 1238 314 1256 343 1250 328 m 1189 360 l 1190 838 l 713 838 l 253 378 b 206 263 221 346 206 308 b 253 146 206 217 221 178 l 499 -100 b 729 -100 564 -162 664 -162 m 1086 601 b 946 742 1086 679 1022 742 b 806 601 868 742 806 679 b 946 463 806 525 868 463 b 1086 601 1022 463 1086 525 m 1003 658 b 1003 544 1035 626 1035 576 b 889 544 971 513 921 513 b 889 658 857 576 857 626 b 1003 658 921 690 971 690 "},"i":{"ha":1621,"x_min":0,"x_max":0,"o":"m 1040 914 b 1419 658 1194 869 1335 792 b 1482 439 1461 592 1482 518 b 710 -64 1482 64 1028 -100 b 417 -236 650 -153 551 -210 b 344 -147 351 -247 313 -199 b 397 38 385 -83 401 -22 b 139 439 243 131 139 274 b 365 819 139 599 232 738 b 582 914 432 860 504 892 b 1040 914 738 958 885 958 m 610 853 b 206 439 407 803 203 657 b 458 79 206 294 290 175 b 408 -169 472 -7 456 -90 b 676 7 536 -146 614 -99 b 811 -4 731 0 775 -4 b 1208 106 943 -4 1086 36 b 1417 439 1331 175 1417 296 b 1014 853 1419 656 1215 804 b 610 853 875 890 747 890 "},"j":{"ha":1957,"x_min":0,"x_max":0,"o":"m 932 882 b 1264 657 1068 843 1190 774 b 1264 269 1338 539 1338 386 b 729 15 1156 100 925 15 b 643 19 700 15 671 17 b 385 -129 589 -57 503 -107 b 318 -47 325 -140 289 -96 b 364 111 353 7 368 60 b 139 463 231 190 139 318 b 528 882 138 679 328 831 b 932 882 664 921 796 921 m 556 821 b 204 463 379 778 201 651 b 425 151 204 339 278 235 b 386 -62 436 75 424 4 b 610 90 493 -40 556 1 b 729 81 672 83 713 81 b 1167 251 885 81 1050 131 b 1254 463 1225 311 1254 382 b 904 821 1257 651 1079 778 b 556 821 785 853 675 853 m 1401 568 b 1751 265 1560 540 1751 451 b 1571 13 1751 164 1692 81 b 1597 -158 1561 -50 1571 -107 b 1426 -37 1514 -137 1469 -110 b 1079 15 1288 -56 1172 -39 b 1054 8 1068 21 1060 18 l 1039 -17 b 1046 -42 1033 -28 1036 -36 b 1394 -106 1144 -99 1261 -121 b 1608 -229 1440 -168 1511 -210 b 1669 -151 1663 -239 1696 -196 b 1632 -29 1642 -108 1629 -67 b 1818 265 1744 39 1818 144 b 1756 451 1818 336 1797 397 b 1604 574 1713 506 1663 546 b 1413 633 1546 601 1482 621 b 1392 618 1400 635 1393 629 l 1386 589 b 1401 568 1385 576 1390 569 "},"k":{"ha":1314,"x_min":0,"x_max":0,"o":"m 538 -256 b 376 -189 476 -256 422 -233 b 303 -22 333 -144 308 -89 l 244 740 l 157 740 b 139 758 144 740 139 746 l 139 789 b 157 807 139 801 144 807 l 464 807 l 464 908 b 524 967 464 940 490 967 l 792 967 b 850 908 824 967 850 940 l 850 807 l 1157 807 b 1175 789 1169 807 1175 801 l 1175 758 b 1157 740 1175 746 1169 740 l 1071 740 l 1013 -22 b 938 -189 1007 -87 982 -143 b 776 -256 892 -233 838 -256 m 524 807 l 790 807 l 790 907 l 524 907 m 424 -142 b 538 -189 456 -174 493 -189 l 776 -189 b 890 -142 821 -189 858 -174 b 946 -17 922 -110 942 -68 l 1004 740 l 310 740 l 368 -17 b 424 -142 372 -65 390 -107 "},"l":{"ha":1467,"x_min":0,"x_max":0,"o":"m 140 372 b 314 733 144 517 203 638 b 701 889 424 829 553 881 l 701 958 b 719 976 701 971 707 976 l 749 976 b 767 958 761 976 767 971 l 767 889 b 1156 732 915 881 1044 828 b 1329 371 1267 636 1325 515 b 1267 308 1329 336 1301 308 l 776 308 l 776 -49 b 721 -185 776 -101 758 -147 b 583 -242 683 -222 638 -242 b 447 -186 529 -242 485 -224 b 390 -49 410 -149 390 -103 b 408 -31 390 -36 396 -31 l 439 -31 b 457 -49 451 -31 457 -36 b 583 -175 457 -117 515 -175 b 710 -49 651 -175 710 -117 l 710 308 l 201 308 b 140 372 167 308 139 338 m 1263 375 b 1096 699 1256 507 1200 614 b 735 824 990 782 869 824 b 374 699 600 824 479 782 b 206 375 268 614 213 507 "},"m":{"ha":1494,"x_min":0,"x_max":0,"o":"m 1053 971 b 1113 911 1085 971 1113 943 l 1113 708 l 1125 708 b 1288 642 1188 708 1242 686 b 1356 479 1333 596 1356 542 l 1356 50 b 1296 -11 1356 17 1328 -11 l 1113 -11 l 1113 -212 b 1053 -272 1113 -246 1085 -272 l 442 -272 b 381 -212 408 -272 381 -246 l 381 -11 l 199 -11 b 139 50 165 -11 139 17 l 139 479 b 207 642 139 542 161 596 b 368 708 251 686 306 708 l 381 708 l 381 911 b 442 971 381 943 408 971 m 1046 904 l 447 904 l 447 708 l 1046 708 m 1113 56 l 1289 56 l 1289 479 b 1242 594 1289 524 1274 563 b 1125 642 1210 626 1171 642 l 368 642 b 253 594 322 642 285 626 b 204 479 221 563 204 524 l 204 56 l 381 56 l 381 318 l 1113 318 m 1074 568 b 1025 519 1047 568 1025 546 b 1074 469 1025 492 1047 469 b 1124 519 1101 469 1124 492 b 1074 568 1124 546 1101 568 m 447 -207 l 1046 -207 l 1046 251 l 447 251 "},"n":{"ha":1199,"x_min":0,"x_max":0,"o":"m 338 -274 b 319 -256 325 -274 319 -268 l 319 -226 b 338 -208 319 -214 325 -208 l 494 -208 l 494 -46 b 257 25 408 -40 329 -17 b 251 51 247 32 244 40 l 265 78 b 290 82 272 88 281 89 b 646 36 404 17 522 1 b 932 254 772 69 867 142 b 978 611 997 367 1013 485 b 760 896 944 738 872 832 b 753 921 750 901 747 910 l 768 947 b 793 953 774 957 782 958 b 1042 628 921 879 1004 771 b 664 -28 1122 351 944 40 b 556 -46 631 -37 594 -43 l 556 -208 l 713 -208 b 731 -226 725 -208 731 -214 l 731 -256 b 713 -274 731 -268 725 -274 m 910 490 b 797 763 910 597 872 688 b 525 875 722 838 632 875 b 251 763 418 875 326 838 b 139 490 176 688 139 597 b 251 217 139 383 176 292 b 525 104 326 142 418 104 b 797 217 632 104 722 142 b 910 490 872 292 910 383 m 525 808 b 751 715 614 808 689 778 b 844 489 814 653 844 578 b 751 263 844 400 814 325 b 525 169 689 200 614 169 b 299 263 436 169 361 200 b 206 489 236 325 206 400 b 299 715 206 578 236 653 b 525 808 361 778 436 808 "},"o":{"ha":1542,"x_min":0,"x_max":0,"o":"m 368 775 b 253 728 322 775 285 760 b 204 613 221 696 204 657 l 204 538 b 186 519 204 525 199 519 l 157 519 b 139 538 144 519 139 525 l 139 613 b 207 775 139 675 161 729 b 368 842 251 819 306 842 l 442 842 b 460 824 454 842 460 836 l 460 794 b 442 775 460 782 454 775 l 368 775 m 1172 775 b 1289 728 1218 775 1257 760 b 1336 613 1321 696 1336 657 l 1336 538 b 1354 519 1336 525 1342 519 l 1385 519 b 1403 538 1397 519 1403 525 l 1403 613 b 1335 775 1403 675 1381 729 b 1172 842 1289 819 1235 842 l 1099 842 b 1081 824 1086 842 1081 836 l 1081 794 b 1099 775 1081 782 1086 775 l 1172 775 m 368 -96 b 204 68 278 -96 204 -22 l 204 142 b 186 160 204 154 199 160 l 157 160 b 139 142 144 160 139 154 l 139 68 b 207 -94 139 6 161 -49 b 368 -162 251 -140 306 -162 l 442 -162 b 460 -143 454 -162 460 -156 l 460 -114 b 442 -96 460 -101 454 -96 l 368 -96 m 1172 -96 b 1336 68 1263 -96 1336 -22 l 1336 142 b 1354 160 1336 154 1342 160 l 1385 160 b 1403 142 1397 160 1403 154 l 1403 68 b 1335 -94 1403 6 1381 -49 b 1172 -162 1289 -140 1235 -162 l 1099 -162 b 1081 -143 1086 -162 1081 -156 l 1081 -114 b 1099 -96 1081 -101 1086 -96 l 1172 -96 "},"p":{"ha":1649,"x_min":0,"x_max":0,"o":"m 1281 763 b 1443 696 1343 763 1397 740 b 1510 533 1488 650 1510 596 l 1510 18 b 1443 -144 1510 -44 1488 -99 b 1281 -212 1397 -190 1343 -212 l 368 -212 b 207 -144 306 -212 251 -190 b 139 18 161 -99 139 -44 l 139 686 b 207 849 139 749 161 803 b 368 917 251 894 306 917 l 626 917 b 846 763 733 917 790 867 m 804 697 b 774 758 789 726 779 747 b 742 803 767 769 757 785 b 626 850 713 839 678 850 l 368 850 b 204 686 278 850 204 776 l 204 18 b 368 -146 204 -72 278 -146 l 1281 -146 b 1444 18 1371 -146 1444 -72 l 1444 533 b 1281 697 1444 624 1371 697 "},"q":{"ha":1742,"x_min":0,"x_max":0,"o":"m 1568 238 l 1563 575 b 1399 724 1563 665 1489 724 l 971 724 b 946 774 958 750 950 767 b 922 813 942 781 935 794 b 889 850 910 831 899 843 b 793 878 869 861 833 878 l 528 878 b 364 733 435 878 364 822 l 364 661 b 346 643 364 649 358 643 l 317 643 b 297 661 304 643 297 649 l 297 733 b 365 886 297 796 319 847 b 528 943 410 924 464 943 l 793 943 b 1011 790 900 943 957 894 l 1399 790 b 1561 731 1463 790 1517 771 b 1628 575 1606 690 1628 638 l 1628 -24 b 1558 -178 1628 -83 1604 -135 b 1397 -243 1511 -221 1457 -243 l 485 -243 b 261 -68 378 -243 285 -172 l 171 328 b 208 504 154 400 167 458 b 383 571 250 549 308 571 l 1318 571 b 1543 385 1429 571 1525 494 m 383 504 b 235 342 276 504 211 446 l 326 -53 b 485 -176 343 -126 407 -176 l 1397 -176 b 1528 -114 1451 -176 1496 -156 b 1557 28 1560 -72 1569 -25 l 1476 381 b 1318 504 1460 454 1394 504 "},"r":{"ha":1628,"x_min":0,"x_max":0,"o":"m 333 864 b 390 906 343 892 361 906 l 1238 906 b 1294 864 1267 906 1285 892 l 1489 307 l 1489 -136 b 1428 -197 1489 -169 1463 -197 l 200 -197 b 139 -136 165 -197 139 -169 l 139 307 m 218 335 l 575 335 b 636 281 607 335 632 313 b 699 164 642 231 663 192 b 814 122 735 136 774 122 b 929 164 854 122 893 136 b 992 281 965 192 986 231 b 1053 335 996 313 1024 335 l 1410 335 l 1235 839 l 394 839 m 1424 268 l 1057 268 b 749 67 1036 100 875 32 b 571 268 660 83 586 161 l 204 268 l 204 -131 l 1424 -131 "},"s":{"ha":1451,"x_min":0,"x_max":0,"o":"m 447 764 l 447 783 b 507 926 447 839 467 886 b 649 986 546 967 593 986 l 1046 986 l 1313 719 l 1313 136 b 1253 -7 1313 81 1293 33 b 1110 -67 1213 -47 1165 -67 l 1004 -67 l 1004 -86 b 946 -229 1004 -142 985 -189 b 803 -289 906 -269 858 -289 l 342 -289 b 199 -229 286 -289 239 -269 b 139 -86 158 -189 139 -142 l 139 561 b 199 706 139 618 158 665 b 342 764 239 744 286 764 m 1246 654 l 1036 654 b 979 710 1004 654 979 681 l 979 919 l 649 919 b 513 783 575 919 513 857 l 513 764 l 739 764 l 1004 497 l 1004 0 l 1110 0 b 1246 136 1186 0 1246 63 m 1039 900 l 1039 714 l 1225 714 m 939 432 l 728 432 b 672 488 699 432 672 456 l 672 697 l 342 697 b 206 561 268 697 206 635 l 206 -86 b 342 -222 206 -160 268 -222 l 803 -222 b 939 -86 876 -222 939 -160 m 732 678 l 732 492 l 918 492 "},"t":{"ha":1425,"x_min":0,"x_max":0,"o":"m 1299 -75 b 1281 -144 1310 -103 1304 -126 b 760 -153 1129 -256 954 -249 b 453 71 651 -100 549 -25 b 229 378 357 167 282 269 b 238 897 138 564 124 754 b 308 915 256 921 279 926 b 594 631 425 869 532 768 b 588 568 604 607 601 586 l 515 474 b 857 132 586 317 700 203 l 951 204 b 1014 211 971 219 992 221 b 1299 -75 1142 151 1250 49 m 1235 476 b 1217 458 1235 464 1229 458 l 1188 458 b 1169 476 1175 458 1169 464 l 1169 744 l 831 406 b 804 406 821 396 813 396 l 783 426 b 783 451 775 435 775 443 l 1122 792 l 861 792 b 843 810 849 792 843 797 l 843 839 b 861 857 843 851 849 857 l 1193 857 b 1235 815 1217 857 1235 838 m 1236 -96 b 989 150 1196 4 1106 94 l 894 78 b 832 71 876 64 856 61 b 454 450 658 149 532 275 b 461 511 444 471 446 492 l 533 606 b 288 853 478 724 388 814 b 289 407 197 725 206 578 b 500 118 338 306 408 208 b 789 -94 590 26 688 -44 b 1236 -96 974 -185 1124 -185 "},"u":{"ha":1425,"x_min":0,"x_max":0,"o":"m 307 -224 b 238 -206 281 -236 257 -229 b 229 314 124 -62 138 128 b 453 621 282 422 357 525 b 760 846 549 717 651 792 b 1279 836 954 940 1128 947 b 1297 767 1303 817 1310 793 b 1013 481 1253 651 1150 546 b 950 488 990 471 969 472 l 856 560 b 515 218 699 488 586 374 l 586 124 b 593 61 601 104 603 83 b 307 -224 533 -67 431 -175 m 286 -161 b 532 86 386 -122 476 -32 l 460 181 b 453 242 447 200 444 221 b 832 621 532 415 658 542 b 893 614 853 629 874 626 l 988 542 b 1235 788 1106 597 1196 688 b 789 786 1107 878 960 869 b 500 575 688 736 590 665 b 288 286 408 485 338 388 b 286 -161 197 101 197 -49 m 799 238 b 840 281 799 261 817 281 l 1172 281 b 1190 263 1185 281 1190 275 l 1190 232 b 1172 214 1190 219 1185 214 l 911 214 l 1250 -125 b 1250 -151 1260 -135 1260 -143 l 1229 -172 b 1203 -171 1221 -181 1213 -181 l 864 167 l 864 -101 b 846 -119 864 -114 858 -119 l 817 -119 b 799 -101 804 -119 799 -114 "},"v":{"ha":1424,"x_min":0,"x_max":0,"o":"m 307 -240 b 236 -222 279 -253 256 -246 b 228 297 122 -81 139 114 b 453 604 282 406 357 508 b 760 829 549 700 651 775 b 1279 819 954 924 1128 931 b 1297 750 1303 801 1308 778 b 1013 464 1251 633 1150 526 b 950 471 990 454 969 456 l 856 543 b 514 201 699 471 585 357 l 586 107 b 593 44 601 88 603 67 b 307 -240 533 -83 431 -192 m 286 -178 b 532 69 386 -139 476 -49 l 460 164 b 453 225 444 183 443 204 b 831 604 529 399 656 525 b 893 597 853 614 874 611 l 988 525 b 1235 771 1106 581 1194 671 b 788 769 1122 860 972 860 b 499 558 686 719 589 649 b 288 269 408 467 338 371 b 286 -178 197 85 197 -65 "},"w":{"ha":1622,"x_min":0,"x_max":0,"o":"m 557 667 l 1422 667 b 1482 592 1463 667 1492 629 l 1367 172 b 1144 7 1340 72 1249 7 l 810 7 b 583 186 694 7 606 75 l 463 806 b 333 906 447 878 410 906 l 157 906 b 139 924 144 906 139 911 l 139 954 b 157 972 139 967 144 972 l 333 972 b 528 818 443 972 507 921 m 1415 600 l 569 600 l 649 199 b 810 74 665 119 726 74 l 1144 74 b 1304 189 1218 74 1283 118 m 739 -87 b 739 -215 703 -122 703 -181 b 867 -215 775 -250 832 -250 b 867 -87 901 -181 901 -122 b 739 -87 832 -53 775 -53 m 1088 -87 b 1088 -215 1053 -122 1053 -181 b 1217 -215 1122 -250 1181 -250 b 1217 -87 1253 -181 1253 -122 b 1088 -87 1181 -53 1122 -53 "},"x":{"ha":1624,"x_min":0,"x_max":0,"o":"m 557 667 l 719 667 l 900 850 b 1146 849 988 939 1058 938 l 1328 667 l 1424 667 b 1482 592 1463 667 1493 629 l 1368 172 b 1146 7 1340 72 1250 7 l 810 7 b 585 186 694 7 607 75 l 463 806 b 335 906 450 878 411 906 l 158 906 b 139 924 146 906 139 911 l 139 954 b 158 972 139 967 146 972 l 335 972 b 528 818 443 972 507 921 m 803 667 l 1244 667 l 1104 807 b 943 808 1039 872 1008 874 m 1417 600 l 571 600 l 650 199 b 810 74 665 119 726 74 l 1146 74 b 1304 189 1222 74 1286 118 m 739 -87 b 739 -215 704 -122 704 -181 b 868 -215 774 -250 832 -250 b 868 -87 904 -181 904 -122 b 739 -87 832 -53 774 -53 m 1089 -87 b 1089 -215 1054 -122 1054 -181 b 1217 -215 1124 -250 1182 -250 b 1217 -87 1251 -181 1251 -122 b 1089 -87 1182 -53 1124 -53 "},"y":{"ha":1408,"x_min":0,"x_max":0,"o":"m 438 758 b 419 776 425 758 419 764 b 567 1097 419 906 468 1013 b 593 1096 576 1104 585 1104 l 613 1072 b 611 1047 619 1063 619 1054 b 486 776 528 976 486 886 b 468 758 486 764 481 758 m 614 758 b 596 776 601 758 596 764 b 711 1026 596 876 635 960 b 738 1025 721 1033 731 1033 l 757 1003 b 756 976 764 993 764 985 b 663 776 693 922 663 856 b 644 758 663 764 657 758 m 976 560 l 1026 560 b 1026 68 1350 560 1350 68 l 976 68 l 976 -60 b 919 -199 976 -114 957 -160 b 781 -256 881 -236 835 -256 l 336 -256 b 197 -199 282 -256 236 -236 b 139 -60 158 -160 139 -114 l 139 635 b 201 697 139 668 168 697 l 914 697 b 976 635 949 697 976 668 m 781 -189 b 910 -60 851 -189 910 -131 l 910 631 l 206 631 l 206 -60 b 336 -189 206 -131 264 -189 m 976 135 l 1026 135 b 1197 368 1168 133 1225 265 b 1026 494 1183 439 1115 494 l 976 494 "},"z":{"ha":1506,"x_min":0,"x_max":0,"o":"m 497 583 l 497 674 b 1017 674 497 1015 1017 1015 l 1017 583 l 1053 583 b 1278 392 1182 583 1257 519 l 1369 -171 b 1308 -242 1375 -208 1347 -242 l 206 -242 b 144 -171 167 -242 139 -208 l 236 392 b 461 583 257 519 332 583 m 950 583 l 950 674 b 564 674 950 928 564 928 l 564 583 m 1017 518 l 1017 436 b 1051 376 1040 424 1051 404 b 983 308 1051 339 1021 308 b 915 376 946 308 915 339 b 950 436 915 404 926 424 l 950 518 l 564 518 l 564 436 b 599 376 588 424 599 404 b 531 308 599 339 568 308 b 463 376 493 308 463 339 b 497 436 463 404 474 424 l 497 518 l 461 518 b 301 381 365 518 317 475 l 211 -176 l 1303 -176 l 1213 381 b 1053 518 1197 475 1149 518 "}}}
